<svg width="66" height="89" viewBox="0 0 66 89" fill="none" xmlns="http://www.w3.org/2000/svg"><rect x="28.0879" y="89.4697" width="34.9325" height="7.59402" rx="3.79701" transform="rotate(-11.7868 28.0879 89.4697)" fill="#00AE85"/><path d="M7.80293 44.3221C7.62592 43.4738 8.17008 42.6426 9.01835 42.4656L34.9878 37.0465L60.9573 31.6275C61.8056 31.4504 62.6368 31.9946 62.8138 32.8429L64.5099 40.971C67.6798 56.1618 57.9349 71.0461 42.7441 74.216V74.216C27.5532 77.3859 12.6689 67.641 9.49903 52.4502L7.80293 44.3221Z" stroke="#00AE85" stroke-width="7.59402"/><rect x="0.761719" y="40.3096" width="68.3462" height="7.59402" rx="3.79701" transform="rotate(-11.7868 0.761719 40.3096)" fill="#00AE85"/><path fill-rule="evenodd" clip-rule="evenodd" d="M13.2683 18.4612C12.1375 13.0417 15.614 7.73168 21.0334 6.6008L35.6039 3.56037C41.0233 2.42949 46.3334 5.90604 47.4643 11.3255L53.9174 42.2505C55.0483 47.6699 51.5718 52.98 46.1523 54.1109L31.5819 57.1513C26.1625 58.2822 20.8524 54.8056 19.7215 49.3862L13.2683 18.4612Z" fill="#00D2A0"/><path d="M16.9297 36.0049L51.1256 28.8692L54.3832 44.4804C56.3537 53.9233 50.2961 63.1757 40.8531 65.1462C31.4102 67.1167 22.1578 61.059 20.1873 51.6161L16.9297 36.0049Z" fill="#00AE85"/><rect opacity="0.3" x="22.1836" y="17.1597" width="8.80907" height="40.5217" rx="4.40453" transform="rotate(-11.7868 22.1836 17.1597)" fill="white"/><rect x="13.5234" y="34.5439" width="41.0077" height="13.6692" rx="3.03761" transform="rotate(-11.7868 13.5234 34.5439)" fill="#6AEFD0"/><rect x="38.1309" y="78.1265" width="10.6316" height="10.6316" transform="rotate(-11.7868 38.1309 78.1265)" fill="#00AE85"/></svg>