<svg xmlns="http://www.w3.org/2000/svg" xmlns:xlink="http://www.w3.org/1999/xlink" id="uuid-781bb68f-44ea-429f-9689-6ce8f69fb9e4" viewBox="0 0 1954.14 1128.35"><defs><clipPath id="uuid-df729851-e088-43cf-9922-64b1e623501d"><rect y="0" width="1954.14" height="1128.35" fill="none"></rect></clipPath></defs><g id="uuid-d4d3dfbd-f569-4a5b-bfac-1f736dd14973"><g clip-path="url(#uuid-df729851-e088-43cf-9922-64b1e623501d)"><polygon points="1856.43 1072.04 1954.14 1128.46 2051.85 1072.04 2051.85 1072.04 1954.14 1015.63 1856.43 1072.04 1856.43 1072.04" fill="none" stroke="#14151d" stroke-miterlimit="10" stroke-width="2"></polygon><polygon points="1954.14 1128.46 2051.85 1184.88 2149.56 1128.46 2149.56 1128.46 2051.85 1072.04 1954.14 1128.46 1954.14 1128.46" fill="none" stroke="#14151d" stroke-miterlimit="10" stroke-width="2"></polygon><polygon points="1758.73 1128.46 1856.43 1184.88 1954.14 1128.46 1954.14 1128.46 1856.43 1072.04 1758.73 1128.46 1758.73 1128.46" fill="none" stroke="#14151d" stroke-miterlimit="10" stroke-width="2"></polygon><polygon points="1856.43 1184.88 1954.14 1241.3 2051.85 1184.88 2051.85 1184.88 1954.14 1128.46 1856.43 1184.88 1856.43 1184.88" fill="none" stroke="#14151d" stroke-miterlimit="10" stroke-width="2"></polygon><polygon points="1856.43 846.37 1954.14 902.79 2051.85 846.37 2051.85 846.37 1954.14 789.96 1856.43 846.37 1856.43 846.37" fill="none" stroke="#14151d" stroke-miterlimit="10" stroke-width="2"></polygon><polygon points="1954.14 902.79 2051.85 959.21 2149.56 902.79 2149.56 902.79 2051.85 846.37 1954.14 902.79 1954.14 902.79" fill="none" stroke="#14151d" stroke-miterlimit="10" stroke-width="2"></polygon><polygon points="1758.73 902.79 1856.43 959.21 1954.14 902.79 1954.14 902.79 1856.43 846.37 1758.73 902.79 1758.73 902.79" fill="none" stroke="#14151d" stroke-miterlimit="10" stroke-width="2"></polygon><polygon points="1856.43 959.21 1954.14 1015.63 2051.85 959.21 2051.85 959.21 1954.14 902.79 1856.43 959.21 1856.43 959.21" fill="none" stroke="#14151d" stroke-miterlimit="10" stroke-width="2"></polygon><polygon points="1856.43 620.7 1954.14 677.12 2051.85 620.7 2051.85 620.7 1954.14 564.29 1856.43 620.7 1856.43 620.7" fill="none" stroke="#14151d" stroke-miterlimit="10" stroke-width="2"></polygon><polygon points="1954.14 677.12 2051.85 733.54 2149.56 677.12 2149.56 677.12 2051.85 620.7 1954.14 677.12 1954.14 677.12" fill="none" stroke="#14151d" stroke-miterlimit="10" stroke-width="2"></polygon><polygon points="1758.73 677.12 1856.43 733.54 1954.14 677.12 1954.14 677.12 1856.43 620.7 1758.73 677.12 1758.73 677.12" fill="none" stroke="#14151d" stroke-miterlimit="10" stroke-width="2"></polygon><polygon points="1856.43 733.54 1954.14 789.96 2051.85 733.54 2051.85 733.54 1954.14 677.12 1856.43 733.54 1856.43 733.54" fill="none" stroke="#14151d" stroke-miterlimit="10" stroke-width="2"></polygon><polygon points="1856.43 395.03 1954.14 451.45 2051.85 395.03 2051.85 395.03 1954.14 338.61 1856.43 395.03 1856.43 395.03" fill="none" stroke="#14151d" stroke-miterlimit="10" stroke-width="2"></polygon><polygon points="1954.14 451.45 2051.85 507.87 2149.56 451.45 2149.56 451.45 2051.85 395.03 1954.14 451.45 1954.14 451.45" fill="none" stroke="#14151d" stroke-miterlimit="10" stroke-width="2"></polygon><polygon points="1758.73 451.45 1856.43 507.87 1954.14 451.45 1954.14 451.45 1856.43 395.03 1758.73 451.45 1758.73 451.45" fill="none" stroke="#14151d" stroke-miterlimit="10" stroke-width="2"></polygon><polygon points="1856.43 507.87 1954.14 564.29 2051.85 507.87 2051.85 507.87 1954.14 451.45 1856.43 507.87 1856.43 507.87" fill="none" stroke="#14151d" stroke-miterlimit="10" stroke-width="2"></polygon><polygon points="1856.43 169.36 1954.14 225.78 2051.85 169.36 2051.85 169.36 1954.14 112.94 1856.43 169.36 1856.43 169.36" fill="none" stroke="#14151d" stroke-miterlimit="10" stroke-width="2"></polygon><polygon points="1954.14 225.78 2051.85 282.2 2149.56 225.78 2149.56 225.78 2051.85 169.36 1954.14 225.78 1954.14 225.78" fill="none" stroke="#14151d" stroke-miterlimit="10" stroke-width="2"></polygon><polygon points="1758.73 225.78 1856.43 282.2 1954.14 225.78 1954.14 225.78 1856.43 169.36 1758.73 225.78 1758.73 225.78" fill="none" stroke="#14151d" stroke-miterlimit="10" stroke-width="2"></polygon><polygon points="1856.43 282.2 1954.14 338.61 2051.85 282.2 2051.85 282.2 1954.14 225.78 1856.43 282.2 1856.43 282.2" fill="none" stroke="#14151d" stroke-miterlimit="10" stroke-width="2"></polygon><polygon points="1856.43 -56.31 1954.14 .11 2051.85 -56.31 2051.85 -56.31 1954.14 -112.73 1856.43 -56.31 1856.43 -56.31" fill="none" stroke="#14151d" stroke-miterlimit="10" stroke-width="2"></polygon><polygon points="1954.14 .11 2051.85 56.53 2149.56 .11 2149.56 .11 2051.85 -56.31 1954.14 .11 1954.14 .11" fill="none" stroke="#14151d" stroke-miterlimit="10" stroke-width="2"></polygon><polygon points="1758.73 .11 1856.43 56.53 1954.14 .11 1954.14 .11 1856.43 -56.31 1758.73 .11 1758.73 .11" fill="none" stroke="#14151d" stroke-miterlimit="10" stroke-width="2"></polygon><polygon points="1856.43 56.53 1954.14 112.94 2051.85 56.53 2051.85 56.53 1954.14 .11 1856.43 56.53 1856.43 56.53" fill="none" stroke="#14151d" stroke-miterlimit="10" stroke-width="2"></polygon><polygon points="1954.14 1015.52 2051.85 1071.94 2149.56 1015.52 2149.56 1015.52 2051.85 959.1 1954.14 1015.52 1954.14 1015.52" fill="none" stroke="#14151d" stroke-miterlimit="10" stroke-width="2"></polygon><polygon points="1954.14 789.85 2051.85 846.27 2149.56 789.85 2149.56 789.85 2051.85 733.43 1954.14 789.85 1954.14 789.85" fill="none" stroke="#14151d" stroke-miterlimit="10" stroke-width="2"></polygon><polygon points="1954.14 564.18 2051.85 620.6 2149.56 564.18 2149.56 564.18 2051.85 507.76 1954.14 564.18 1954.14 564.18" fill="none" stroke="#14151d" stroke-miterlimit="10" stroke-width="2"></polygon><polygon points="1954.14 338.51 2051.85 394.92 2149.56 338.51 2149.56 338.51 2051.85 282.09 1954.14 338.51 1954.14 338.51" fill="none" stroke="#14151d" stroke-miterlimit="10" stroke-width="2"></polygon><polygon points="1954.14 112.84 2051.85 169.25 2149.56 112.84 2149.56 112.84 2051.85 56.42 1954.14 112.84 1954.14 112.84" fill="none" stroke="#14151d" stroke-miterlimit="10" stroke-width="2"></polygon><polygon points="1465.61 1072.04 1563.31 1128.46 1661.02 1072.04 1661.02 1072.04 1563.31 1015.63 1465.61 1072.04 1465.61 1072.04" fill="none" stroke="#14151d" stroke-miterlimit="10" stroke-width="2"></polygon><polygon points="1563.31 1128.46 1661.02 1184.88 1758.73 1128.46 1758.73 1128.46 1661.02 1072.04 1563.31 1128.46 1563.31 1128.46" fill="none" stroke="#14151d" stroke-miterlimit="10" stroke-width="2"></polygon><polygon points="1367.9 1128.46 1465.61 1184.88 1563.31 1128.46 1563.31 1128.46 1465.61 1072.04 1367.9 1128.46 1367.9 1128.46" fill="none" stroke="#14151d" stroke-miterlimit="10" stroke-width="2"></polygon><polygon points="1465.61 1184.88 1563.31 1241.3 1661.02 1184.88 1661.02 1184.88 1563.31 1128.46 1465.61 1184.88 1465.61 1184.88" fill="none" stroke="#14151d" stroke-miterlimit="10" stroke-width="2"></polygon><polygon points="1465.61 846.37 1563.31 902.79 1661.02 846.37 1661.02 846.37 1563.31 789.96 1465.61 846.37 1465.61 846.37" fill="none" stroke="#14151d" stroke-miterlimit="10" stroke-width="2"></polygon><polygon points="1563.31 902.79 1661.02 959.21 1758.73 902.79 1758.73 902.79 1661.02 846.37 1563.31 902.79 1563.31 902.79" fill="none" stroke="#14151d" stroke-miterlimit="10" stroke-width="2"></polygon><polygon points="1367.9 902.79 1465.61 959.21 1563.31 902.79 1563.31 902.79 1465.61 846.37 1367.9 902.79 1367.9 902.79" fill="none" stroke="#14151d" stroke-miterlimit="10" stroke-width="2"></polygon><polygon points="1465.61 959.21 1563.31 1015.63 1661.02 959.21 1661.02 959.21 1563.31 902.79 1465.61 959.21 1465.61 959.21" fill="none" stroke="#14151d" stroke-miterlimit="10" stroke-width="2"></polygon><polygon points="1465.61 620.7 1563.31 677.12 1661.02 620.7 1661.02 620.7 1563.31 564.29 1465.61 620.7 1465.61 620.7" fill="none" stroke="#14151d" stroke-miterlimit="10" stroke-width="2"></polygon><polygon points="1563.31 677.12 1661.02 733.54 1758.73 677.12 1758.73 677.12 1661.02 620.7 1563.31 677.12 1563.31 677.12" fill="none" stroke="#14151d" stroke-miterlimit="10" stroke-width="2"></polygon><polygon points="1367.9 677.12 1465.61 733.54 1563.31 677.12 1563.31 677.12 1465.61 620.7 1367.9 677.12 1367.9 677.12" fill="none" stroke="#14151d" stroke-miterlimit="10" stroke-width="2"></polygon><polygon points="1465.61 733.54 1563.31 789.96 1661.02 733.54 1661.02 733.54 1563.31 677.12 1465.61 733.54 1465.61 733.54" fill="none" stroke="#14151d" stroke-miterlimit="10" stroke-width="2"></polygon><polygon points="1465.61 395.03 1563.31 451.45 1661.02 395.03 1661.02 395.03 1563.31 338.61 1465.61 395.03 1465.61 395.03" fill="none" stroke="#14151d" stroke-miterlimit="10" stroke-width="2"></polygon><polygon points="1563.31 451.45 1661.02 507.87 1758.73 451.45 1758.73 451.45 1661.02 395.03 1563.31 451.45 1563.31 451.45" fill="none" stroke="#14151d" stroke-miterlimit="10" stroke-width="2"></polygon><polygon points="1367.9 451.45 1465.61 507.87 1563.31 451.45 1563.31 451.45 1465.61 395.03 1367.9 451.45 1367.9 451.45" fill="none" stroke="#14151d" stroke-miterlimit="10" stroke-width="2"></polygon><polygon points="1465.61 507.87 1563.31 564.29 1661.02 507.87 1661.02 507.87 1563.31 451.45 1465.61 507.87 1465.61 507.87" fill="none" stroke="#14151d" stroke-miterlimit="10" stroke-width="2"></polygon><polygon points="1465.61 169.36 1563.31 225.78 1661.02 169.36 1661.02 169.36 1563.31 112.94 1465.61 169.36 1465.61 169.36" fill="none" stroke="#14151d" stroke-miterlimit="10" stroke-width="2"></polygon><polygon points="1563.31 225.78 1661.02 282.2 1758.73 225.78 1758.73 225.78 1661.02 169.36 1563.31 225.78 1563.31 225.78" fill="none" stroke="#14151d" stroke-miterlimit="10" stroke-width="2"></polygon><polygon points="1367.9 225.78 1465.61 282.2 1563.31 225.78 1563.31 225.78 1465.61 169.36 1367.9 225.78 1367.9 225.78" fill="none" stroke="#14151d" stroke-miterlimit="10" stroke-width="2"></polygon><polygon points="1465.61 282.2 1563.31 338.61 1661.02 282.2 1661.02 282.2 1563.31 225.78 1465.61 282.2 1465.61 282.2" fill="none" stroke="#14151d" stroke-miterlimit="10" stroke-width="2"></polygon><polygon points="1465.61 -56.31 1563.31 .11 1661.02 -56.31 1661.02 -56.31 1563.31 -112.73 1465.61 -56.31 1465.61 -56.31" fill="none" stroke="#14151d" stroke-miterlimit="10" stroke-width="2"></polygon><polygon points="1563.31 .11 1661.02 56.53 1758.73 .11 1758.73 .11 1661.02 -56.31 1563.31 .11 1563.31 .11" fill="none" stroke="#14151d" stroke-miterlimit="10" stroke-width="2"></polygon><polygon points="1367.9 .11 1465.61 56.53 1563.31 .11 1563.31 .11 1465.61 -56.31 1367.9 .11 1367.9 .11" fill="none" stroke="#14151d" stroke-miterlimit="10" stroke-width="2"></polygon><polygon points="1465.61 56.53 1563.31 112.94 1661.02 56.53 1661.02 56.53 1563.31 .11 1465.61 56.53 1465.61 56.53" fill="none" stroke="#14151d" stroke-miterlimit="10" stroke-width="2"></polygon><polygon points="1661.02 1184.77 1758.73 1241.19 1856.43 1184.77 1856.43 1184.77 1758.73 1128.35 1661.02 1184.77 1661.02 1184.77" fill="none" stroke="#14151d" stroke-miterlimit="10" stroke-width="2"></polygon><polygon points="1661.02 959.1 1758.73 1015.52 1856.43 959.1 1856.43 959.1 1758.73 902.68 1661.02 959.1 1661.02 959.1" fill="none" stroke="#14151d" stroke-miterlimit="10" stroke-width="2"></polygon><polygon points="1758.73 1015.52 1856.43 1071.94 1954.14 1015.52 1954.14 1015.52 1856.43 959.1 1758.73 1015.52 1758.73 1015.52" fill="none" stroke="#14151d" stroke-miterlimit="10" stroke-width="2"></polygon><polygon points="1563.31 1015.52 1661.02 1071.94 1758.73 1015.52 1758.73 1015.52 1661.02 959.1 1563.31 1015.52 1563.31 1015.52" fill="none" stroke="#14151d" stroke-miterlimit="10" stroke-width="2"></polygon><polygon points="1661.02 1071.94 1758.73 1128.35 1856.43 1071.94 1856.43 1071.94 1758.73 1015.52 1661.02 1071.94 1661.02 1071.94" fill="none" stroke="#14151d" stroke-miterlimit="10" stroke-width="2"></polygon><polygon points="1661.02 733.43 1758.73 789.85 1856.43 733.43 1856.43 733.43 1758.73 677.01 1661.02 733.43 1661.02 733.43" fill="none" stroke="#14151d" stroke-miterlimit="10" stroke-width="2"></polygon><polygon points="1758.73 789.85 1856.43 846.27 1954.14 789.85 1954.14 789.85 1856.43 733.43 1758.73 789.85 1758.73 789.85" fill="none" stroke="#14151d" stroke-miterlimit="10" stroke-width="2"></polygon><polygon points="1563.31 789.85 1661.02 846.27 1758.73 789.85 1758.73 789.85 1661.02 733.43 1563.31 789.85 1563.31 789.85" fill="none" stroke="#14151d" stroke-miterlimit="10" stroke-width="2"></polygon><polygon points="1661.02 846.27 1758.73 902.68 1856.43 846.27 1856.43 846.27 1758.73 789.85 1661.02 846.27 1661.02 846.27" fill="none" stroke="#14151d" stroke-miterlimit="10" stroke-width="2"></polygon><polygon points="1661.02 507.76 1758.73 564.18 1856.43 507.76 1856.43 507.76 1758.73 451.34 1661.02 507.76 1661.02 507.76" fill="none" stroke="#14151d" stroke-miterlimit="10" stroke-width="2"></polygon><polygon points="1758.73 564.18 1856.43 620.6 1954.14 564.18 1954.14 564.18 1856.43 507.76 1758.73 564.18 1758.73 564.18" fill="none" stroke="#14151d" stroke-miterlimit="10" stroke-width="2"></polygon><polygon points="1563.31 564.18 1661.02 620.6 1758.73 564.18 1758.73 564.18 1661.02 507.76 1563.31 564.18 1563.31 564.18" fill="none" stroke="#14151d" stroke-miterlimit="10" stroke-width="2"></polygon><polygon points="1661.02 620.6 1758.73 677.01 1856.43 620.6 1856.43 620.6 1758.73 564.18 1661.02 620.6 1661.02 620.6" fill="none" stroke="#14151d" stroke-miterlimit="10" stroke-width="2"></polygon><polygon points="1661.02 282.09 1758.73 338.51 1856.43 282.09 1856.43 282.09 1758.73 225.67 1661.02 282.09 1661.02 282.09" fill="none" stroke="#14151d" stroke-miterlimit="10" stroke-width="2"></polygon><polygon points="1758.73 338.51 1856.43 394.92 1954.14 338.51 1954.14 338.51 1856.43 282.09 1758.73 338.51 1758.73 338.51" fill="none" stroke="#14151d" stroke-miterlimit="10" stroke-width="2"></polygon><polygon points="1563.31 338.51 1661.02 394.92 1758.73 338.51 1758.73 338.51 1661.02 282.09 1563.31 338.51 1563.31 338.51" fill="none" stroke="#14151d" stroke-miterlimit="10" stroke-width="2"></polygon><polygon points="1661.02 394.92 1758.73 451.34 1856.43 394.92 1856.43 394.92 1758.73 338.51 1661.02 394.92 1661.02 394.92" fill="none" stroke="#14151d" stroke-miterlimit="10" stroke-width="2"></polygon><polygon points="1661.02 56.42 1758.73 112.84 1856.43 56.42 1856.43 56.42 1758.73 0 1661.02 56.42 1661.02 56.42" fill="none" stroke="#14151d" stroke-miterlimit="10" stroke-width="2"></polygon><polygon points="1758.73 112.84 1856.43 169.25 1954.14 112.84 1954.14 112.84 1856.43 56.42 1758.73 112.84 1758.73 112.84" fill="none" stroke="#14151d" stroke-miterlimit="10" stroke-width="2"></polygon><polygon points="1563.31 112.84 1661.02 169.25 1758.73 112.84 1758.73 112.84 1661.02 56.42 1563.31 112.84 1563.31 112.84" fill="none" stroke="#14151d" stroke-miterlimit="10" stroke-width="2"></polygon><polygon points="1661.02 169.25 1758.73 225.67 1856.43 169.25 1856.43 169.25 1758.73 112.84 1661.02 169.25 1661.02 169.25" fill="none" stroke="#14151d" stroke-miterlimit="10" stroke-width="2"></polygon><polygon points="1074.78 1072.04 1172.48 1128.46 1270.19 1072.04 1270.19 1072.04 1172.48 1015.63 1074.78 1072.04 1074.78 1072.04" fill="none" stroke="#14151d" stroke-miterlimit="10" stroke-width="2"></polygon><polygon points="1172.48 1128.46 1270.19 1184.88 1367.9 1128.46 1367.9 1128.46 1270.19 1072.04 1172.48 1128.46 1172.48 1128.46" fill="none" stroke="#14151d" stroke-miterlimit="10" stroke-width="2"></polygon><polygon points="977.07 1128.46 1074.78 1184.88 1172.48 1128.46 1172.48 1128.46 1074.78 1072.04 977.07 1128.46 977.07 1128.46" fill="none" stroke="#14151d" stroke-miterlimit="10" stroke-width="2"></polygon><polygon points="1074.78 1184.88 1172.48 1241.3 1270.19 1184.88 1270.19 1184.88 1172.48 1128.46 1074.78 1184.88 1074.78 1184.88" fill="none" stroke="#14151d" stroke-miterlimit="10" stroke-width="2"></polygon><polygon points="1074.78 846.37 1172.48 902.79 1270.19 846.37 1270.19 846.37 1172.48 789.96 1074.78 846.37 1074.78 846.37" fill="none" stroke="#14151d" stroke-miterlimit="10" stroke-width="2"></polygon><polygon points="1172.48 902.79 1270.19 959.21 1367.9 902.79 1367.9 902.79 1270.19 846.37 1172.48 902.79 1172.48 902.79" fill="none" stroke="#14151d" stroke-miterlimit="10" stroke-width="2"></polygon><polygon points="977.07 902.79 1074.78 959.21 1172.48 902.79 1172.48 902.79 1074.78 846.37 977.07 902.79 977.07 902.79" fill="none" stroke="#14151d" stroke-miterlimit="10" stroke-width="2"></polygon><polygon points="1074.78 959.21 1172.48 1015.63 1270.19 959.21 1270.19 959.21 1172.48 902.79 1074.78 959.21 1074.78 959.21" fill="none" stroke="#14151d" stroke-miterlimit="10" stroke-width="2"></polygon><polygon points="1074.78 620.7 1172.48 677.12 1270.19 620.7 1270.19 620.7 1172.48 564.29 1074.78 620.7 1074.78 620.7" fill="none" stroke="#14151d" stroke-miterlimit="10" stroke-width="2"></polygon><polygon points="1172.48 677.12 1270.19 733.54 1367.9 677.12 1367.9 677.12 1270.19 620.7 1172.48 677.12 1172.48 677.12" fill="none" stroke="#14151d" stroke-miterlimit="10" stroke-width="2"></polygon><polygon points="977.07 677.12 1074.78 733.54 1172.48 677.12 1172.48 677.12 1074.78 620.7 977.07 677.12 977.07 677.12" fill="none" stroke="#14151d" stroke-miterlimit="10" stroke-width="2"></polygon><polygon points="1074.78 733.54 1172.48 789.96 1270.19 733.54 1270.19 733.54 1172.48 677.12 1074.78 733.54 1074.78 733.54" fill="none" stroke="#14151d" stroke-miterlimit="10" stroke-width="2"></polygon><polygon points="1074.78 395.03 1172.48 451.45 1270.19 395.03 1270.19 395.03 1172.48 338.61 1074.78 395.03 1074.78 395.03" fill="none" stroke="#14151d" stroke-miterlimit="10" stroke-width="2"></polygon><polygon points="1172.48 451.45 1270.19 507.87 1367.9 451.45 1367.9 451.45 1270.19 395.03 1172.48 451.45 1172.48 451.45" fill="none" stroke="#14151d" stroke-miterlimit="10" stroke-width="2"></polygon><polygon points="977.07 451.45 1074.78 507.87 1172.48 451.45 1172.48 451.45 1074.78 395.03 977.07 451.45 977.07 451.45" fill="none" stroke="#14151d" stroke-miterlimit="10" stroke-width="2"></polygon><polygon points="1074.78 507.87 1172.48 564.29 1270.19 507.87 1270.19 507.87 1172.48 451.45 1074.78 507.87 1074.78 507.87" fill="none" stroke="#14151d" stroke-miterlimit="10" stroke-width="2"></polygon><polygon points="1074.78 169.36 1172.48 225.78 1270.19 169.36 1270.19 169.36 1172.48 112.94 1074.78 169.36 1074.78 169.36" fill="none" stroke="#14151d" stroke-miterlimit="10" stroke-width="2"></polygon><polygon points="1172.48 225.78 1270.19 282.2 1367.9 225.78 1367.9 225.78 1270.19 169.36 1172.48 225.78 1172.48 225.78" fill="none" stroke="#14151d" stroke-miterlimit="10" stroke-width="2"></polygon><polygon points="977.07 225.78 1074.78 282.2 1172.48 225.78 1172.48 225.78 1074.78 169.36 977.07 225.78 977.07 225.78" fill="none" stroke="#14151d" stroke-miterlimit="10" stroke-width="2"></polygon><polygon points="1074.78 282.2 1172.48 338.61 1270.19 282.2 1270.19 282.2 1172.48 225.78 1074.78 282.2 1074.78 282.2" fill="none" stroke="#14151d" stroke-miterlimit="10" stroke-width="2"></polygon><polygon points="1074.78 -56.31 1172.48 .11 1270.19 -56.31 1270.19 -56.31 1172.48 -112.73 1074.78 -56.31 1074.78 -56.31" fill="none" stroke="#14151d" stroke-miterlimit="10" stroke-width="2"></polygon><polygon points="1172.48 .11 1270.19 56.53 1367.9 .11 1367.9 .11 1270.19 -56.31 1172.48 .11 1172.48 .11" fill="none" stroke="#14151d" stroke-miterlimit="10" stroke-width="2"></polygon><polygon points="977.07 .11 1074.78 56.53 1172.48 .11 1172.48 .11 1074.78 -56.31 977.07 .11 977.07 .11" fill="none" stroke="#14151d" stroke-miterlimit="10" stroke-width="2"></polygon><polygon points="1074.78 56.53 1172.48 112.94 1270.19 56.53 1270.19 56.53 1172.48 .11 1074.78 56.53 1074.78 56.53" fill="none" stroke="#14151d" stroke-miterlimit="10" stroke-width="2"></polygon><polygon points="1270.19 1184.77 1367.9 1241.19 1465.61 1184.77 1465.61 1184.77 1367.9 1128.35 1270.19 1184.77 1270.19 1184.77" fill="none" stroke="#14151d" stroke-miterlimit="10" stroke-width="2"></polygon><polygon points="1270.19 959.1 1367.9 1015.52 1465.61 959.1 1465.61 959.1 1367.9 902.68 1270.19 959.1 1270.19 959.1" fill="none" stroke="#14151d" stroke-miterlimit="10" stroke-width="2"></polygon><polygon points="1367.9 1015.52 1465.61 1071.94 1563.31 1015.52 1563.31 1015.52 1465.61 959.1 1367.9 1015.52 1367.9 1015.52" fill="none" stroke="#14151d" stroke-miterlimit="10" stroke-width="2"></polygon><polygon points="1172.48 1015.52 1270.19 1071.94 1367.9 1015.52 1367.9 1015.52 1270.19 959.1 1172.48 1015.52 1172.48 1015.52" fill="none" stroke="#14151d" stroke-miterlimit="10" stroke-width="2"></polygon><polygon points="1270.19 1071.94 1367.9 1128.35 1465.61 1071.94 1465.61 1071.94 1367.9 1015.52 1270.19 1071.94 1270.19 1071.94" fill="none" stroke="#14151d" stroke-miterlimit="10" stroke-width="2"></polygon><polygon points="1270.19 733.43 1367.9 789.85 1465.61 733.43 1465.61 733.43 1367.9 677.01 1270.19 733.43 1270.19 733.43" fill="none" stroke="#14151d" stroke-miterlimit="10" stroke-width="2"></polygon><polygon points="1367.9 789.85 1465.61 846.27 1563.31 789.85 1563.31 789.85 1465.61 733.43 1367.9 789.85 1367.9 789.85" fill="none" stroke="#14151d" stroke-miterlimit="10" stroke-width="2"></polygon><polygon points="1172.48 789.85 1270.19 846.27 1367.9 789.85 1367.9 789.85 1270.19 733.43 1172.48 789.85 1172.48 789.85" fill="none" stroke="#14151d" stroke-miterlimit="10" stroke-width="2"></polygon><polygon points="1270.19 846.27 1367.9 902.68 1465.61 846.27 1465.61 846.27 1367.9 789.85 1270.19 846.27 1270.19 846.27" fill="none" stroke="#14151d" stroke-miterlimit="10" stroke-width="2"></polygon><polygon points="1270.19 507.76 1367.9 564.18 1465.61 507.76 1465.61 507.76 1367.9 451.34 1270.19 507.76 1270.19 507.76" fill="none" stroke="#14151d" stroke-miterlimit="10" stroke-width="2"></polygon><polygon points="1367.9 564.18 1465.61 620.6 1563.31 564.18 1563.31 564.18 1465.61 507.76 1367.9 564.18 1367.9 564.18" fill="none" stroke="#14151d" stroke-miterlimit="10" stroke-width="2"></polygon><polygon points="1172.48 564.18 1270.19 620.6 1367.9 564.18 1367.9 564.18 1270.19 507.76 1172.48 564.18 1172.48 564.18" fill="none" stroke="#14151d" stroke-miterlimit="10" stroke-width="2"></polygon><polygon points="1270.19 620.6 1367.9 677.01 1465.61 620.6 1465.61 620.6 1367.9 564.18 1270.19 620.6 1270.19 620.6" fill="none" stroke="#14151d" stroke-miterlimit="10" stroke-width="2"></polygon><polygon points="1270.19 282.09 1367.9 338.51 1465.61 282.09 1465.61 282.09 1367.9 225.67 1270.19 282.09 1270.19 282.09" fill="none" stroke="#14151d" stroke-miterlimit="10" stroke-width="2"></polygon><polygon points="1367.9 338.51 1465.61 394.92 1563.31 338.51 1563.31 338.51 1465.61 282.09 1367.9 338.51 1367.9 338.51" fill="none" stroke="#14151d" stroke-miterlimit="10" stroke-width="2"></polygon><polygon points="1172.48 338.51 1270.19 394.92 1367.9 338.51 1367.9 338.51 1270.19 282.09 1172.48 338.51 1172.48 338.51" fill="none" stroke="#14151d" stroke-miterlimit="10" stroke-width="2"></polygon><polygon points="1270.19 394.92 1367.9 451.34 1465.61 394.92 1465.61 394.92 1367.9 338.51 1270.19 394.92 1270.19 394.92" fill="none" stroke="#14151d" stroke-miterlimit="10" stroke-width="2"></polygon><polygon points="1270.19 56.42 1367.9 112.84 1465.61 56.42 1465.61 56.42 1367.9 0 1270.19 56.42 1270.19 56.42" fill="none" stroke="#14151d" stroke-miterlimit="10" stroke-width="2"></polygon><polygon points="1367.9 112.84 1465.61 169.25 1563.31 112.84 1563.31 112.84 1465.61 56.42 1367.9 112.84 1367.9 112.84" fill="none" stroke="#14151d" stroke-miterlimit="10" stroke-width="2"></polygon><polygon points="1172.48 112.84 1270.19 169.25 1367.9 112.84 1367.9 112.84 1270.19 56.42 1172.48 112.84 1172.48 112.84" fill="none" stroke="#14151d" stroke-miterlimit="10" stroke-width="2"></polygon><polygon points="1270.19 169.25 1367.9 225.67 1465.61 169.25 1465.61 169.25 1367.9 112.84 1270.19 169.25 1270.19 169.25" fill="none" stroke="#14151d" stroke-miterlimit="10" stroke-width="2"></polygon><polygon points="683.95 1072.04 781.66 1128.46 879.36 1072.04 879.36 1072.04 781.66 1015.63 683.95 1072.04 683.95 1072.04" fill="none" stroke="#14151d" stroke-miterlimit="10" stroke-width="2"></polygon><polygon points="781.66 1128.46 879.36 1184.88 977.07 1128.46 977.07 1128.46 879.36 1072.04 781.66 1128.46 781.66 1128.46" fill="none" stroke="#14151d" stroke-miterlimit="10" stroke-width="2"></polygon><polygon points="586.24 1128.46 683.95 1184.88 781.66 1128.46 781.66 1128.46 683.95 1072.04 586.24 1128.46 586.24 1128.46" fill="none" stroke="#14151d" stroke-miterlimit="10" stroke-width="2"></polygon><polygon points="683.95 1184.88 781.66 1241.3 879.36 1184.88 879.36 1184.88 781.66 1128.46 683.95 1184.88 683.95 1184.88" fill="none" stroke="#14151d" stroke-miterlimit="10" stroke-width="2"></polygon><polygon points="683.95 846.37 781.66 902.79 879.36 846.37 879.36 846.37 781.66 789.96 683.95 846.37 683.95 846.37" fill="none" stroke="#14151d" stroke-miterlimit="10" stroke-width="2"></polygon><polygon points="781.66 902.79 879.36 959.21 977.07 902.79 977.07 902.79 879.36 846.37 781.66 902.79 781.66 902.79" fill="none" stroke="#14151d" stroke-miterlimit="10" stroke-width="2"></polygon><polygon points="586.24 902.79 683.95 959.21 781.66 902.79 781.66 902.79 683.95 846.37 586.24 902.79 586.24 902.79" fill="none" stroke="#14151d" stroke-miterlimit="10" stroke-width="2"></polygon><polygon points="683.95 959.21 781.66 1015.63 879.36 959.21 879.36 959.21 781.66 902.79 683.95 959.21 683.95 959.21" fill="none" stroke="#14151d" stroke-miterlimit="10" stroke-width="2"></polygon><polygon points="683.95 620.7 781.66 677.12 879.36 620.7 879.36 620.7 781.66 564.29 683.95 620.7 683.95 620.7" fill="none" stroke="#14151d" stroke-miterlimit="10" stroke-width="2"></polygon><polygon points="781.66 677.12 879.36 733.54 977.07 677.12 977.07 677.12 879.36 620.7 781.66 677.12 781.66 677.12" fill="none" stroke="#14151d" stroke-miterlimit="10" stroke-width="2"></polygon><polygon points="586.24 677.12 683.95 733.54 781.66 677.12 781.66 677.12 683.95 620.7 586.24 677.12 586.24 677.12" fill="none" stroke="#14151d" stroke-miterlimit="10" stroke-width="2"></polygon><polygon points="683.95 733.54 781.66 789.96 879.36 733.54 879.36 733.54 781.66 677.12 683.95 733.54 683.95 733.54" fill="none" stroke="#14151d" stroke-miterlimit="10" stroke-width="2"></polygon><polygon points="683.95 395.03 781.66 451.45 879.36 395.03 879.36 395.03 781.66 338.61 683.95 395.03 683.95 395.03" fill="none" stroke="#14151d" stroke-miterlimit="10" stroke-width="2"></polygon><polygon points="781.66 451.45 879.36 507.87 977.07 451.45 977.07 451.45 879.36 395.03 781.66 451.45 781.66 451.45" fill="none" stroke="#14151d" stroke-miterlimit="10" stroke-width="2"></polygon><polygon points="586.24 451.45 683.95 507.87 781.66 451.45 781.66 451.45 683.95 395.03 586.24 451.45 586.24 451.45" fill="none" stroke="#14151d" stroke-miterlimit="10" stroke-width="2"></polygon><polygon points="683.95 507.87 781.66 564.29 879.36 507.87 879.36 507.87 781.66 451.45 683.95 507.87 683.95 507.87" fill="none" stroke="#14151d" stroke-miterlimit="10" stroke-width="2"></polygon><polygon points="683.95 169.36 781.66 225.78 879.36 169.36 879.36 169.36 781.66 112.94 683.95 169.36 683.95 169.36" fill="none" stroke="#14151d" stroke-miterlimit="10" stroke-width="2"></polygon><polygon points="781.66 225.78 879.36 282.2 977.07 225.78 977.07 225.78 879.36 169.36 781.66 225.78 781.66 225.78" fill="none" stroke="#14151d" stroke-miterlimit="10" stroke-width="2"></polygon><polygon points="586.24 225.78 683.95 282.2 781.66 225.78 781.66 225.78 683.95 169.36 586.24 225.78 586.24 225.78" fill="none" stroke="#14151d" stroke-miterlimit="10" stroke-width="2"></polygon><polygon points="683.95 282.2 781.66 338.61 879.36 282.2 879.36 282.2 781.66 225.78 683.95 282.2 683.95 282.2" fill="none" stroke="#14151d" stroke-miterlimit="10" stroke-width="2"></polygon><polygon points="683.95 -56.31 781.66 .11 879.36 -56.31 879.36 -56.31 781.66 -112.73 683.95 -56.31 683.95 -56.31" fill="none" stroke="#14151d" stroke-miterlimit="10" stroke-width="2"></polygon><polygon points="781.66 .11 879.36 56.53 977.07 .11 977.07 .11 879.36 -56.31 781.66 .11 781.66 .11" fill="none" stroke="#14151d" stroke-miterlimit="10" stroke-width="2"></polygon><polygon points="586.24 .11 683.95 56.53 781.66 .11 781.66 .11 683.95 -56.31 586.24 .11 586.24 .11" fill="none" stroke="#14151d" stroke-miterlimit="10" stroke-width="2"></polygon><polygon points="683.95 56.53 781.66 112.94 879.36 56.53 879.36 56.53 781.66 .11 683.95 56.53 683.95 56.53" fill="none" stroke="#14151d" stroke-miterlimit="10" stroke-width="2"></polygon><polygon points="879.36 1184.77 977.07 1241.19 1074.78 1184.77 1074.78 1184.77 977.07 1128.35 879.36 1184.77 879.36 1184.77" fill="none" stroke="#14151d" stroke-miterlimit="10" stroke-width="2"></polygon><polygon points="879.36 959.1 977.07 1015.52 1074.78 959.1 1074.78 959.1 977.07 902.68 879.36 959.1 879.36 959.1" fill="none" stroke="#14151d" stroke-miterlimit="10" stroke-width="2"></polygon><polygon points="977.07 1015.52 1074.78 1071.94 1172.48 1015.52 1172.48 1015.52 1074.78 959.1 977.07 1015.52 977.07 1015.52" fill="none" stroke="#14151d" stroke-miterlimit="10" stroke-width="2"></polygon><polygon points="781.66 1015.52 879.36 1071.94 977.07 1015.52 977.07 1015.52 879.36 959.1 781.66 1015.52 781.66 1015.52" fill="none" stroke="#14151d" stroke-miterlimit="10" stroke-width="2"></polygon><polygon points="879.36 1071.94 977.07 1128.35 1074.78 1071.94 1074.78 1071.94 977.07 1015.52 879.36 1071.94 879.36 1071.94" fill="none" stroke="#14151d" stroke-miterlimit="10" stroke-width="2"></polygon><polygon points="879.36 733.43 977.07 789.85 1074.78 733.43 1074.78 733.43 977.07 677.01 879.36 733.43 879.36 733.43" fill="none" stroke="#14151d" stroke-miterlimit="10" stroke-width="2"></polygon><polygon points="977.07 789.85 1074.78 846.27 1172.48 789.85 1172.48 789.85 1074.78 733.43 977.07 789.85 977.07 789.85" fill="none" stroke="#14151d" stroke-miterlimit="10" stroke-width="2"></polygon><polygon points="781.66 789.85 879.36 846.27 977.07 789.85 977.07 789.85 879.36 733.43 781.66 789.85 781.66 789.85" fill="none" stroke="#14151d" stroke-miterlimit="10" stroke-width="2"></polygon><polygon points="879.36 846.27 977.07 902.68 1074.78 846.27 1074.78 846.27 977.07 789.85 879.36 846.27 879.36 846.27" fill="none" stroke="#14151d" stroke-miterlimit="10" stroke-width="2"></polygon><polygon points="879.36 507.76 977.07 564.18 1074.78 507.76 1074.78 507.76 977.07 451.34 879.36 507.76 879.36 507.76" fill="none" stroke="#14151d" stroke-miterlimit="10" stroke-width="2"></polygon><polygon points="977.07 564.18 1074.78 620.6 1172.48 564.18 1172.48 564.18 1074.78 507.76 977.07 564.18 977.07 564.18" fill="none" stroke="#14151d" stroke-miterlimit="10" stroke-width="2"></polygon><polygon points="781.66 564.18 879.36 620.6 977.07 564.18 977.07 564.18 879.36 507.76 781.66 564.18 781.66 564.18" fill="none" stroke="#14151d" stroke-miterlimit="10" stroke-width="2"></polygon><polygon points="879.36 620.6 977.07 677.01 1074.78 620.6 1074.78 620.6 977.07 564.18 879.36 620.6 879.36 620.6" fill="none" stroke="#14151d" stroke-miterlimit="10" stroke-width="2"></polygon><polygon points="879.36 282.09 977.07 338.51 1074.78 282.09 1074.78 282.09 977.07 225.67 879.36 282.09 879.36 282.09" fill="none" stroke="#14151d" stroke-miterlimit="10" stroke-width="2"></polygon><polygon points="977.07 338.51 1074.78 394.92 1172.48 338.51 1172.48 338.51 1074.78 282.09 977.07 338.51 977.07 338.51" fill="none" stroke="#14151d" stroke-miterlimit="10" stroke-width="2"></polygon><polygon points="781.66 338.51 879.36 394.92 977.07 338.51 977.07 338.51 879.36 282.09 781.66 338.51 781.66 338.51" fill="none" stroke="#14151d" stroke-miterlimit="10" stroke-width="2"></polygon><polygon points="879.36 394.92 977.07 451.34 1074.78 394.92 1074.78 394.92 977.07 338.51 879.36 394.92 879.36 394.92" fill="none" stroke="#14151d" stroke-miterlimit="10" stroke-width="2"></polygon><polygon points="879.36 56.42 977.07 112.84 1074.78 56.42 1074.78 56.42 977.07 0 879.36 56.42 879.36 56.42" fill="none" stroke="#14151d" stroke-miterlimit="10" stroke-width="2"></polygon><polygon points="977.07 112.84 1074.78 169.25 1172.48 112.84 1172.48 112.84 1074.78 56.42 977.07 112.84 977.07 112.84" fill="none" stroke="#14151d" stroke-miterlimit="10" stroke-width="2"></polygon><polygon points="781.66 112.84 879.36 169.25 977.07 112.84 977.07 112.84 879.36 56.42 781.66 112.84 781.66 112.84" fill="none" stroke="#14151d" stroke-miterlimit="10" stroke-width="2"></polygon><polygon points="879.36 169.25 977.07 225.67 1074.78 169.25 1074.78 169.25 977.07 112.84 879.36 169.25 879.36 169.25" fill="none" stroke="#14151d" stroke-miterlimit="10" stroke-width="2"></polygon><polygon points="293.12 1072.04 390.83 1128.46 488.54 1072.04 488.54 1072.04 390.83 1015.63 293.12 1072.04 293.12 1072.04" fill="none" stroke="#14151d" stroke-miterlimit="10" stroke-width="2"></polygon><polygon points="390.83 1128.46 488.54 1184.88 586.24 1128.46 586.24 1128.46 488.54 1072.04 390.83 1128.46 390.83 1128.46" fill="none" stroke="#14151d" stroke-miterlimit="10" stroke-width="2"></polygon><polygon points="195.41 1128.46 293.12 1184.88 390.83 1128.46 390.83 1128.46 293.12 1072.04 195.41 1128.46 195.41 1128.46" fill="none" stroke="#14151d" stroke-miterlimit="10" stroke-width="2"></polygon><polygon points="293.12 1184.88 390.83 1241.3 488.54 1184.88 488.54 1184.88 390.83 1128.46 293.12 1184.88 293.12 1184.88" fill="none" stroke="#14151d" stroke-miterlimit="10" stroke-width="2"></polygon><polygon points="293.12 846.37 390.83 902.79 488.54 846.37 488.54 846.37 390.83 789.96 293.12 846.37 293.12 846.37" fill="none" stroke="#14151d" stroke-miterlimit="10" stroke-width="2"></polygon><polygon points="390.83 902.79 488.54 959.21 586.24 902.79 586.24 902.79 488.54 846.37 390.83 902.79 390.83 902.79" fill="none" stroke="#14151d" stroke-miterlimit="10" stroke-width="2"></polygon><polygon points="195.41 902.79 293.12 959.21 390.83 902.79 390.83 902.79 293.12 846.37 195.41 902.79 195.41 902.79" fill="none" stroke="#14151d" stroke-miterlimit="10" stroke-width="2"></polygon><polygon points="293.12 959.21 390.83 1015.63 488.54 959.21 488.54 959.21 390.83 902.79 293.12 959.21 293.12 959.21" fill="none" stroke="#14151d" stroke-miterlimit="10" stroke-width="2"></polygon><polygon points="293.12 620.7 390.83 677.12 488.54 620.7 488.54 620.7 390.83 564.29 293.12 620.7 293.12 620.7" fill="none" stroke="#14151d" stroke-miterlimit="10" stroke-width="2"></polygon><polygon points="390.83 677.12 488.54 733.54 586.24 677.12 586.24 677.12 488.54 620.7 390.83 677.12 390.83 677.12" fill="none" stroke="#14151d" stroke-miterlimit="10" stroke-width="2"></polygon><polygon points="195.41 677.12 293.12 733.54 390.83 677.12 390.83 677.12 293.12 620.7 195.41 677.12 195.41 677.12" fill="none" stroke="#14151d" stroke-miterlimit="10" stroke-width="2"></polygon><polygon points="293.12 733.54 390.83 789.96 488.54 733.54 488.54 733.54 390.83 677.12 293.12 733.54 293.12 733.54" fill="none" stroke="#14151d" stroke-miterlimit="10" stroke-width="2"></polygon><polygon points="293.12 395.03 390.83 451.45 488.54 395.03 488.54 395.03 390.83 338.61 293.12 395.03 293.12 395.03" fill="none" stroke="#14151d" stroke-miterlimit="10" stroke-width="2"></polygon><polygon points="390.83 451.45 488.54 507.87 586.24 451.45 586.24 451.45 488.54 395.03 390.83 451.45 390.83 451.45" fill="none" stroke="#14151d" stroke-miterlimit="10" stroke-width="2"></polygon><polygon points="195.41 451.45 293.12 507.87 390.83 451.45 390.83 451.45 293.12 395.03 195.41 451.45 195.41 451.45" fill="none" stroke="#14151d" stroke-miterlimit="10" stroke-width="2"></polygon><polygon points="293.12 507.87 390.83 564.29 488.54 507.87 488.54 507.87 390.83 451.45 293.12 507.87 293.12 507.87" fill="none" stroke="#14151d" stroke-miterlimit="10" stroke-width="2"></polygon><polygon points="293.12 169.36 390.83 225.78 488.54 169.36 488.54 169.36 390.83 112.94 293.12 169.36 293.12 169.36" fill="none" stroke="#14151d" stroke-miterlimit="10" stroke-width="2"></polygon><polygon points="390.83 225.78 488.54 282.2 586.24 225.78 586.24 225.78 488.54 169.36 390.83 225.78 390.83 225.78" fill="none" stroke="#14151d" stroke-miterlimit="10" stroke-width="2"></polygon><polygon points="195.41 225.78 293.12 282.2 390.83 225.78 390.83 225.78 293.12 169.36 195.41 225.78 195.41 225.78" fill="none" stroke="#14151d" stroke-miterlimit="10" stroke-width="2"></polygon><polygon points="293.12 282.2 390.83 338.61 488.54 282.2 488.54 282.2 390.83 225.78 293.12 282.2 293.12 282.2" fill="none" stroke="#14151d" stroke-miterlimit="10" stroke-width="2"></polygon><polygon points="293.12 -56.31 390.83 .11 488.54 -56.31 488.54 -56.31 390.83 -112.73 293.12 -56.31 293.12 -56.31" fill="none" stroke="#14151d" stroke-miterlimit="10" stroke-width="2"></polygon><polygon points="390.83 .11 488.54 56.53 586.24 .11 586.24 .11 488.54 -56.31 390.83 .11 390.83 .11" fill="none" stroke="#14151d" stroke-miterlimit="10" stroke-width="2"></polygon><polygon points="195.41 .11 293.12 56.53 390.83 .11 390.83 .11 293.12 -56.31 195.41 .11 195.41 .11" fill="none" stroke="#14151d" stroke-miterlimit="10" stroke-width="2"></polygon><polygon points="293.12 56.53 390.83 112.94 488.54 56.53 488.54 56.53 390.83 .11 293.12 56.53 293.12 56.53" fill="none" stroke="#14151d" stroke-miterlimit="10" stroke-width="2"></polygon><polygon points="488.54 1184.77 586.24 1241.19 683.95 1184.77 683.95 1184.77 586.24 1128.35 488.54 1184.77 488.54 1184.77" fill="none" stroke="#14151d" stroke-miterlimit="10" stroke-width="2"></polygon><polygon points="488.54 959.1 586.24 1015.52 683.95 959.1 683.95 959.1 586.24 902.68 488.54 959.1 488.54 959.1" fill="none" stroke="#14151d" stroke-miterlimit="10" stroke-width="2"></polygon><polygon points="586.24 1015.52 683.95 1071.94 781.66 1015.52 781.66 1015.52 683.95 959.1 586.24 1015.52 586.24 1015.52" fill="none" stroke="#14151d" stroke-miterlimit="10" stroke-width="2"></polygon><polygon points="390.83 1015.52 488.54 1071.94 586.24 1015.52 586.24 1015.52 488.54 959.1 390.83 1015.52 390.83 1015.52" fill="none" stroke="#14151d" stroke-miterlimit="10" stroke-width="2"></polygon><polygon points="488.54 1071.94 586.24 1128.35 683.95 1071.94 683.95 1071.94 586.24 1015.52 488.54 1071.94 488.54 1071.94" fill="none" stroke="#14151d" stroke-miterlimit="10" stroke-width="2"></polygon><polygon points="488.54 733.43 586.24 789.85 683.95 733.43 683.95 733.43 586.24 677.01 488.54 733.43 488.54 733.43" fill="none" stroke="#14151d" stroke-miterlimit="10" stroke-width="2"></polygon><polygon points="586.24 789.85 683.95 846.27 781.66 789.85 781.66 789.85 683.95 733.43 586.24 789.85 586.24 789.85" fill="none" stroke="#14151d" stroke-miterlimit="10" stroke-width="2"></polygon><polygon points="390.83 789.85 488.54 846.27 586.24 789.85 586.24 789.85 488.54 733.43 390.83 789.85 390.83 789.85" fill="none" stroke="#14151d" stroke-miterlimit="10" stroke-width="2"></polygon><polygon points="488.54 846.27 586.24 902.68 683.95 846.27 683.95 846.27 586.24 789.85 488.54 846.27 488.54 846.27" fill="none" stroke="#14151d" stroke-miterlimit="10" stroke-width="2"></polygon><polygon points="488.54 507.76 586.24 564.18 683.95 507.76 683.95 507.76 586.24 451.34 488.54 507.76 488.54 507.76" fill="none" stroke="#14151d" stroke-miterlimit="10" stroke-width="2"></polygon><polygon points="586.24 564.18 683.95 620.6 781.66 564.18 781.66 564.18 683.95 507.76 586.24 564.18 586.24 564.18" fill="none" stroke="#14151d" stroke-miterlimit="10" stroke-width="2"></polygon><polygon points="390.83 564.18 488.54 620.6 586.24 564.18 586.24 564.18 488.54 507.76 390.83 564.18 390.83 564.18" fill="none" stroke="#14151d" stroke-miterlimit="10" stroke-width="2"></polygon><polygon points="488.54 620.6 586.24 677.01 683.95 620.6 683.95 620.6 586.24 564.18 488.54 620.6 488.54 620.6" fill="none" stroke="#14151d" stroke-miterlimit="10" stroke-width="2"></polygon><polygon points="488.54 282.09 586.24 338.51 683.95 282.09 683.95 282.09 586.24 225.67 488.54 282.09 488.54 282.09" fill="none" stroke="#14151d" stroke-miterlimit="10" stroke-width="2"></polygon><polygon points="586.24 338.51 683.95 394.92 781.66 338.51 781.66 338.51 683.95 282.09 586.24 338.51 586.24 338.51" fill="none" stroke="#14151d" stroke-miterlimit="10" stroke-width="2"></polygon><polygon points="390.83 338.51 488.54 394.92 586.24 338.51 586.24 338.51 488.54 282.09 390.83 338.51 390.83 338.51" fill="none" stroke="#14151d" stroke-miterlimit="10" stroke-width="2"></polygon><polygon points="488.54 394.92 586.24 451.34 683.95 394.92 683.95 394.92 586.24 338.51 488.54 394.92 488.54 394.92" fill="none" stroke="#14151d" stroke-miterlimit="10" stroke-width="2"></polygon><polygon points="488.54 56.42 586.24 112.84 683.95 56.42 683.95 56.42 586.24 0 488.54 56.42 488.54 56.42" fill="none" stroke="#14151d" stroke-miterlimit="10" stroke-width="2"></polygon><polygon points="586.24 112.84 683.95 169.25 781.66 112.84 781.66 112.84 683.95 56.42 586.24 112.84 586.24 112.84" fill="none" stroke="#14151d" stroke-miterlimit="10" stroke-width="2"></polygon><polygon points="390.83 112.84 488.54 169.25 586.24 112.84 586.24 112.84 488.54 56.42 390.83 112.84 390.83 112.84" fill="none" stroke="#14151d" stroke-miterlimit="10" stroke-width="2"></polygon><polygon points="488.54 169.25 586.24 225.67 683.95 169.25 683.95 169.25 586.24 112.84 488.54 169.25 488.54 169.25" fill="none" stroke="#14151d" stroke-miterlimit="10" stroke-width="2"></polygon><polygon points="-97.71 1072.04 0 1128.46 97.71 1072.04 97.71 1072.04 0 1015.63 -97.71 1072.04 -97.71 1072.04" fill="none" stroke="#14151d" stroke-miterlimit="10" stroke-width="2"></polygon><polygon points="0 1128.46 97.71 1184.88 195.41 1128.46 195.41 1128.46 97.71 1072.04 0 1128.46 0 1128.46" fill="none" stroke="#14151d" stroke-miterlimit="10" stroke-width="2"></polygon><polygon points="-195.41 1128.46 -97.71 1184.88 0 1128.46 0 1128.46 -97.71 1072.04 -195.41 1128.46 -195.41 1128.46" fill="none" stroke="#14151d" stroke-miterlimit="10" stroke-width="2"></polygon><polygon points="-97.71 1184.88 0 1241.3 97.71 1184.88 97.71 1184.88 0 1128.46 -97.71 1184.88 -97.71 1184.88" fill="none" stroke="#14151d" stroke-miterlimit="10" stroke-width="2"></polygon><polygon points="-97.71 846.37 0 902.79 97.71 846.37 97.71 846.37 0 789.96 -97.71 846.37 -97.71 846.37" fill="none" stroke="#14151d" stroke-miterlimit="10" stroke-width="2"></polygon><polygon points="0 902.79 97.71 959.21 195.41 902.79 195.41 902.79 97.71 846.37 0 902.79 0 902.79" fill="none" stroke="#14151d" stroke-miterlimit="10" stroke-width="2"></polygon><polygon points="-195.41 902.79 -97.71 959.21 0 902.79 0 902.79 -97.71 846.37 -195.41 902.79 -195.41 902.79" fill="none" stroke="#14151d" stroke-miterlimit="10" stroke-width="2"></polygon><polygon points="-97.71 959.21 0 1015.63 97.71 959.21 97.71 959.21 0 902.79 -97.71 959.21 -97.71 959.21" fill="none" stroke="#14151d" stroke-miterlimit="10" stroke-width="2"></polygon><polygon points="-97.71 620.7 0 677.12 97.71 620.7 97.71 620.7 0 564.29 -97.71 620.7 -97.71 620.7" fill="none" stroke="#14151d" stroke-miterlimit="10" stroke-width="2"></polygon><polygon points="0 677.12 97.71 733.54 195.41 677.12 195.41 677.12 97.71 620.7 0 677.12 0 677.12" fill="none" stroke="#14151d" stroke-miterlimit="10" stroke-width="2"></polygon><polygon points="-195.41 677.12 -97.71 733.54 0 677.12 0 677.12 -97.71 620.7 -195.41 677.12 -195.41 677.12" fill="none" stroke="#14151d" stroke-miterlimit="10" stroke-width="2"></polygon><polygon points="-97.71 733.54 0 789.96 97.71 733.54 97.71 733.54 0 677.12 -97.71 733.54 -97.71 733.54" fill="none" stroke="#14151d" stroke-miterlimit="10" stroke-width="2"></polygon><polygon points="-97.71 395.03 0 451.45 97.71 395.03 97.71 395.03 0 338.61 -97.71 395.03 -97.71 395.03" fill="none" stroke="#14151d" stroke-miterlimit="10" stroke-width="2"></polygon><polygon points="0 451.45 97.71 507.87 195.41 451.45 195.41 451.45 97.71 395.03 0 451.45 0 451.45" fill="none" stroke="#14151d" stroke-miterlimit="10" stroke-width="2"></polygon><polygon points="-195.41 451.45 -97.71 507.87 0 451.45 0 451.45 -97.71 395.03 -195.41 451.45 -195.41 451.45" fill="none" stroke="#14151d" stroke-miterlimit="10" stroke-width="2"></polygon><polygon points="-97.71 507.87 0 564.29 97.71 507.87 97.71 507.87 0 451.45 -97.71 507.87 -97.71 507.87" fill="none" stroke="#14151d" stroke-miterlimit="10" stroke-width="2"></polygon><polygon points="-97.71 169.36 0 225.78 97.71 169.36 97.71 169.36 0 112.94 -97.71 169.36 -97.71 169.36" fill="none" stroke="#14151d" stroke-miterlimit="10" stroke-width="2"></polygon><polygon points="0 225.78 97.71 282.2 195.41 225.78 195.41 225.78 97.71 169.36 0 225.78 0 225.78" fill="none" stroke="#14151d" stroke-miterlimit="10" stroke-width="2"></polygon><polygon points="-195.41 225.78 -97.71 282.2 0 225.78 0 225.78 -97.71 169.36 -195.41 225.78 -195.41 225.78" fill="none" stroke="#14151d" stroke-miterlimit="10" stroke-width="2"></polygon><polygon points="-97.71 282.2 0 338.61 97.71 282.2 97.71 282.2 0 225.78 -97.71 282.2 -97.71 282.2" fill="none" stroke="#14151d" stroke-miterlimit="10" stroke-width="2"></polygon><polygon points="-97.71 -56.31 0 .11 97.71 -56.31 97.71 -56.31 0 -112.73 -97.71 -56.31 -97.71 -56.31" fill="none" stroke="#14151d" stroke-miterlimit="10" stroke-width="2"></polygon><polygon points="0 .11 97.71 56.53 195.41 .11 195.41 .11 97.71 -56.31 0 .11 0 .11" fill="none" stroke="#14151d" stroke-miterlimit="10" stroke-width="2"></polygon><polygon points="-195.41 .11 -97.71 56.53 0 .11 0 .11 -97.71 -56.31 -195.41 .11 -195.41 .11" fill="none" stroke="#14151d" stroke-miterlimit="10" stroke-width="2"></polygon><polygon points="-97.71 56.53 0 112.94 97.71 56.53 97.71 56.53 0 .11 -97.71 56.53 -97.71 56.53" fill="none" stroke="#14151d" stroke-miterlimit="10" stroke-width="2"></polygon><polygon points="97.71 1184.77 195.41 1241.19 293.12 1184.77 293.12 1184.77 195.41 1128.35 97.71 1184.77 97.71 1184.77" fill="none" stroke="#14151d" stroke-miterlimit="10" stroke-width="2"></polygon><polygon points="97.71 959.1 195.41 1015.52 293.12 959.1 293.12 959.1 195.41 902.68 97.71 959.1 97.71 959.1" fill="none" stroke="#14151d" stroke-miterlimit="10" stroke-width="2"></polygon><polygon points="195.41 1015.52 293.12 1071.94 390.83 1015.52 390.83 1015.52 293.12 959.1 195.41 1015.52 195.41 1015.52" fill="none" stroke="#14151d" stroke-miterlimit="10" stroke-width="2"></polygon><polygon points="0 1015.52 97.71 1071.94 195.41 1015.52 195.41 1015.52 97.71 959.1 0 1015.52 0 1015.52" fill="none" stroke="#14151d" stroke-miterlimit="10" stroke-width="2"></polygon><polygon points="97.71 1071.94 195.41 1128.35 293.12 1071.94 293.12 1071.94 195.41 1015.52 97.71 1071.94 97.71 1071.94" fill="none" stroke="#14151d" stroke-miterlimit="10" stroke-width="2"></polygon><polygon points="97.71 733.43 195.41 789.85 293.12 733.43 293.12 733.43 195.41 677.01 97.71 733.43 97.71 733.43" fill="none" stroke="#14151d" stroke-miterlimit="10" stroke-width="2"></polygon><polygon points="195.41 789.85 293.12 846.27 390.83 789.85 390.83 789.85 293.12 733.43 195.41 789.85 195.41 789.85" fill="none" stroke="#14151d" stroke-miterlimit="10" stroke-width="2"></polygon><polygon points="0 789.85 97.71 846.27 195.41 789.85 195.41 789.85 97.71 733.43 0 789.85 0 789.85" fill="none" stroke="#14151d" stroke-miterlimit="10" stroke-width="2"></polygon><polygon points="97.71 846.27 195.41 902.68 293.12 846.27 293.12 846.27 195.41 789.85 97.71 846.27 97.71 846.27" fill="none" stroke="#14151d" stroke-miterlimit="10" stroke-width="2"></polygon><polygon points="97.71 507.76 195.41 564.18 293.12 507.76 293.12 507.76 195.41 451.34 97.71 507.76 97.71 507.76" fill="none" stroke="#14151d" stroke-miterlimit="10" stroke-width="2"></polygon><polygon points="195.41 564.18 293.12 620.6 390.83 564.18 390.83 564.18 293.12 507.76 195.41 564.18 195.41 564.18" fill="none" stroke="#14151d" stroke-miterlimit="10" stroke-width="2"></polygon><polygon points="0 564.18 97.71 620.6 195.41 564.18 195.41 564.18 97.71 507.76 0 564.18 0 564.18" fill="none" stroke="#14151d" stroke-miterlimit="10" stroke-width="2"></polygon><polygon points="97.71 620.6 195.41 677.01 293.12 620.6 293.12 620.6 195.41 564.18 97.71 620.6 97.71 620.6" fill="none" stroke="#14151d" stroke-miterlimit="10" stroke-width="2"></polygon><polygon points="97.71 282.09 195.41 338.51 293.12 282.09 293.12 282.09 195.41 225.67 97.71 282.09 97.71 282.09" fill="none" stroke="#14151d" stroke-miterlimit="10" stroke-width="2"></polygon><polygon points="195.41 338.51 293.12 394.92 390.83 338.51 390.83 338.51 293.12 282.09 195.41 338.51 195.41 338.51" fill="none" stroke="#14151d" stroke-miterlimit="10" stroke-width="2"></polygon><polygon points="0 338.51 97.71 394.92 195.41 338.51 195.41 338.51 97.71 282.09 0 338.51 0 338.51" fill="none" stroke="#14151d" stroke-miterlimit="10" stroke-width="2"></polygon><polygon points="97.71 394.92 195.41 451.34 293.12 394.92 293.12 394.92 195.41 338.51 97.71 394.92 97.71 394.92" fill="none" stroke="#14151d" stroke-miterlimit="10" stroke-width="2"></polygon><polygon points="97.71 56.42 195.41 112.84 293.12 56.42 293.12 56.42 195.41 0 97.71 56.42 97.71 56.42" fill="none" stroke="#14151d" stroke-miterlimit="10" stroke-width="2"></polygon><polygon points="195.41 112.84 293.12 169.25 390.83 112.84 390.83 112.84 293.12 56.42 195.41 112.84 195.41 112.84" fill="none" stroke="#14151d" stroke-miterlimit="10" stroke-width="2"></polygon><polygon points="0 112.84 97.71 169.25 195.41 112.84 195.41 112.84 97.71 56.42 0 112.84 0 112.84" fill="none" stroke="#14151d" stroke-miterlimit="10" stroke-width="2"></polygon><polygon points="97.71 169.25 195.41 225.67 293.12 169.25 293.12 169.25 195.41 112.84 97.71 169.25 97.71 169.25" fill="none" stroke="#14151d" stroke-miterlimit="10" stroke-width="2"></polygon></g></g></svg>